<svg xmlns="http://www.w3.org/2000/svg" xmlns:xlink="http://www.w3.org/1999/xlink" width="500" zoomAndPan="magnify" viewBox="0 0 375 374.999991" height="500" preserveAspectRatio="xMidYMid meet" version="1.2"><defs><clipPath id="86f62e4c3b"><path d="M 0.515625 1.03125 L 374.484375 1.03125 L 374.484375 375 L 0.515625 375 Z M 0.515625 1.03125 "/></clipPath><clipPath id="ec6420a773"><path d="M 187.5 1.03125 C 84.230469 1.03125 0.515625 84.746094 0.515625 188.015625 C 0.515625 291.285156 84.230469 375 187.5 375 C 290.769531 375 374.484375 291.285156 374.484375 188.015625 C 374.484375 84.746094 290.769531 1.03125 187.5 1.03125 Z M 187.5 1.03125 "/></clipPath><clipPath id="c14a0548d3"><path d="M 0.515625 0.03125 L 374.484375 0.03125 L 374.484375 374 L 0.515625 374 Z M 0.515625 0.03125 "/></clipPath><clipPath id="3e89ae895f"><path d="M 187.5 0.03125 C 84.230469 0.03125 0.515625 83.746094 0.515625 187.015625 C 0.515625 290.285156 84.230469 374 187.5 374 C 290.769531 374 374.484375 290.285156 374.484375 187.015625 C 374.484375 83.746094 290.769531 0.03125 187.5 0.03125 Z M 187.5 0.03125 "/></clipPath><clipPath id="5d723793de"><rect x="0" width="375" y="0" height="374"/></clipPath><clipPath id="ea666a4232"><path d="M 209 102 L 245.527344 102 L 245.527344 332.355469 L 209 332.355469 Z M 209 102 "/></clipPath><clipPath id="34e548e77d"><path d="M 120 48 L 185 48 L 185 275 L 120 275 Z M 120 48 "/></clipPath><clipPath id="cb08a793d7"><path d="M 107.976562 51.785156 L 159.171875 42.226562 L 211.746094 323.820312 L 160.546875 333.378906 Z M 107.976562 51.785156 "/></clipPath><clipPath id="7de7e485f8"><path d="M 107.976562 51.785156 L 216.46875 31.53125 L 269.039062 313.125 L 160.546875 333.378906 Z M 107.976562 51.785156 "/></clipPath><clipPath id="12f5b1290e"><path d="M 263.496094 110.671875 L 305.65625 110.671875 L 305.65625 268 L 263.496094 268 Z M 263.496094 110.671875 "/></clipPath><clipPath id="900b3b782d"><path d="M 69.398438 210.382812 L 106.601562 210.382812 L 106.601562 267.425781 L 69.398438 267.425781 Z M 69.398438 210.382812 "/></clipPath><clipPath id="9efc6ce70f"><rect x="0" width="375" y="0" height="375"/></clipPath></defs><g id="b79238da04"><g transform="matrix(1,0,0,1,0.000000000000000056,0)"><g clip-path="url(#9efc6ce70f)"><g clip-rule="nonzero" clip-path="url(#86f62e4c3b)"><g clip-rule="nonzero" clip-path="url(#ec6420a773)"><g transform="matrix(1,0,0,1,0.000000000000000056,1)"><g id="facf452a11" clip-path="url(#5d723793de)"><g clip-rule="nonzero" clip-path="url(#c14a0548d3)"><g clip-rule="nonzero" clip-path="url(#3e89ae895f)"><path style=" stroke:none;fill-rule:nonzero;fill:#0d253f;fill-opacity:1;" d="M 0.515625 0.03125 L 374.484375 0.03125 L 374.484375 374 L 0.515625 374 Z M 0.515625 0.03125 "/></g></g></g></g></g></g><g clip-rule="nonzero" clip-path="url(#ea666a4232)"><path style=" stroke:none;fill-rule:nonzero;fill:#8c52ff;fill-opacity:1;" d="M 246.128906 111.527344 L 230.316406 111.527344 L 230.316406 102.652344 L 225.511719 102.652344 L 225.511719 111.527344 L 209.699219 111.527344 L 209.699219 266.011719 L 225.511719 266.011719 L 225.511719 332.75 L 230.316406 332.75 L 230.316406 266.011719 L 246.128906 266.011719 L 246.128906 111.527344 "/></g><g clip-rule="nonzero" clip-path="url(#34e548e77d)"><g clip-rule="nonzero" clip-path="url(#cb08a793d7)"><g clip-rule="nonzero" clip-path="url(#7de7e485f8)"><path style=" stroke:none;fill-rule:nonzero;fill:#e1e5ea;fill-opacity:1;" d="M 155.832031 110.433594 L 140.359375 113.324219 L 128.164062 48.007812 L 123.464844 48.886719 L 135.65625 114.203125 L 120.183594 117.089844 L 148.410156 268.273438 L 163.882812 265.386719 L 165.503906 274.074219 L 170.207031 273.195312 L 168.585938 264.507812 L 184.058594 261.617188 L 155.832031 110.433594 "/></g></g></g><g clip-rule="nonzero" clip-path="url(#12f5b1290e)"><path style=" stroke:none;fill-rule:nonzero;fill:#8c52ff;fill-opacity:1;" d="M 89.136719 251.785156 C 89.136719 247.539062 90.65625 243.886719 93.71875 240.828125 C 96.777344 237.953125 100.335938 236.414062 104.414062 236.246094 L 104.675781 236.246094 C 109.085938 236.246094 112.832031 237.765625 115.871094 240.828125 C 118.929688 243.886719 120.453125 247.613281 120.453125 252.042969 C 120.453125 256.289062 118.914062 259.941406 115.871094 263 C 112.8125 266.058594 109.085938 267.578125 104.675781 267.578125 C 100.429688 267.578125 96.777344 266.058594 93.71875 263 C 90.65625 259.941406 89.136719 256.195312 89.136719 251.785156 Z M 151.523438 110.957031 C 158.476562 145.753906 169.007812 197.960938 183.097656 267.578125 C 176.3125 267.578125 165.949219 267.578125 152.023438 267.578125 C 144.90625 232.78125 134.132812 180.570312 119.691406 110.957031 C 126.828125 110.957031 137.433594 110.957031 151.523438 110.957031 Z M 211.851562 110.695312 C 218.804688 110.695312 229.261719 110.695312 243.183594 110.695312 C 243.183594 145.496094 243.183594 197.703125 243.183594 267.320312 C 236.214844 267.320312 225.777344 267.320312 211.851562 267.320312 C 211.851562 232.519531 211.851562 180.3125 211.851562 110.695312 Z M 274.515625 126.492188 C 274.515625 122.246094 276.035156 118.59375 279.097656 115.535156 C 282.15625 112.476562 285.808594 110.957031 290.054688 110.957031 C 294.296875 110.957031 297.949219 112.476562 301.011719 115.535156 C 304.070312 118.59375 305.589844 122.246094 305.589844 126.492188 C 305.589844 130.902344 304.070312 134.554688 301.011719 137.449219 C 297.949219 140.507812 294.296875 142.027344 290.054688 142.027344 C 285.808594 142.027344 282.15625 140.507812 279.097656 137.449219 C 276.035156 134.554688 274.515625 130.902344 274.515625 126.492188 Z M 290.035156 173.339844 C 294.28125 173.339844 297.933594 174.878906 300.992188 177.921875 C 304.050781 180.980469 305.570312 184.632812 305.570312 188.878906 C 305.570312 189.042969 305.570312 189.304688 305.570312 189.636719 C 305.570312 193.882812 304.050781 197.535156 300.992188 200.59375 C 297.933594 203.652344 294.28125 205.175781 290.035156 205.175781 C 285.789062 205.175781 282.136719 203.652344 279.078125 200.59375 C 276.019531 197.535156 274.496094 193.882812 274.496094 189.636719 C 274.496094 189.472656 274.496094 189.210938 274.496094 188.878906 C 274.496094 184.632812 276.019531 180.980469 279.078125 177.921875 C 282.15625 174.878906 285.808594 173.339844 290.035156 173.339844 Z M 290.035156 173.339844 "/></g><g clip-rule="nonzero" clip-path="url(#900b3b782d)"><path style=" stroke:none;fill-rule:nonzero;fill:#e1e5ea;fill-opacity:1;" d="M 69.398438 251.785156 C 69.398438 247.539062 70.917969 243.886719 73.980469 240.828125 C 77.039062 237.953125 80.597656 236.414062 84.675781 236.246094 L 84.9375 236.246094 C 89.347656 236.246094 93.09375 237.765625 96.132812 240.828125 C 99.191406 243.886719 100.714844 247.613281 100.714844 252.042969 C 100.714844 256.289062 99.175781 259.941406 96.132812 263 C 93.074219 266.058594 89.347656 267.578125 84.9375 267.578125 C 80.691406 267.578125 77.039062 266.058594 73.980469 263 C 70.917969 259.941406 69.398438 256.195312 69.398438 251.785156 Z M 131.785156 110.957031 C 138.738281 145.753906 149.269531 197.960938 163.359375 267.578125 C 156.574219 267.578125 146.210938 267.578125 132.285156 267.578125 C 125.167969 232.78125 114.394531 180.570312 99.953125 110.957031 C 107.089844 110.957031 117.695312 110.957031 131.785156 110.957031 Z M 192.113281 110.695312 C 199.066406 110.695312 209.523438 110.695312 223.445312 110.695312 C 223.445312 145.496094 223.445312 197.703125 223.445312 267.320312 C 216.476562 267.320312 206.039062 267.320312 192.113281 267.320312 C 192.113281 232.519531 192.113281 180.3125 192.113281 110.695312 Z M 254.777344 126.492188 C 254.777344 122.246094 256.296875 118.59375 259.359375 115.535156 C 262.417969 112.476562 266.070312 110.957031 270.316406 110.957031 C 274.558594 110.957031 278.210938 112.476562 281.273438 115.535156 C 284.332031 118.59375 285.851562 122.246094 285.851562 126.492188 C 285.851562 130.902344 284.332031 134.554688 281.273438 137.449219 C 278.210938 140.507812 274.558594 142.027344 270.316406 142.027344 C 266.070312 142.027344 262.417969 140.507812 259.359375 137.449219 C 256.296875 134.554688 254.777344 130.902344 254.777344 126.492188 Z M 270.296875 173.339844 C 274.542969 173.339844 278.195312 174.878906 281.253906 177.921875 C 284.3125 180.980469 285.832031 184.632812 285.832031 188.878906 C 285.832031 189.042969 285.832031 189.304688 285.832031 189.636719 C 285.832031 193.882812 284.3125 197.535156 281.253906 200.59375 C 278.195312 203.652344 274.542969 205.175781 270.296875 205.175781 C 266.050781 205.175781 262.398438 203.652344 259.339844 200.59375 C 256.28125 197.535156 254.761719 193.882812 254.761719 189.636719 C 254.761719 189.472656 254.761719 189.210938 254.761719 188.878906 C 254.761719 184.632812 256.28125 180.980469 259.339844 177.921875 C 262.417969 174.878906 266.070312 173.339844 270.296875 173.339844 Z M 270.296875 173.339844 "/></g></g></g></g></svg>