<svg xmlns="http://www.w3.org/2000/svg" xmlns:xlink="http://www.w3.org/1999/xlink" width="500" zoomAndPan="magnify" viewBox="0 0 375 374.999991" height="500" preserveAspectRatio="xMidYMid meet" version="1.2"><defs><clipPath id="b0814a4aa0"><path d="M 34 94.984375 L 168.945312 94.984375 L 168.945312 280 L 34 280 Z M 34 94.984375 "/></clipPath><clipPath id="2e9c3afaf5"><path d="M 171.757812 94.984375 L 340.695312 94.984375 L 340.695312 280 L 171.757812 280 Z M 171.757812 94.984375 "/></clipPath><clipPath id="0c84867ac2"><path d="M 34 187.34375 L 167.445312 187.34375 L 167.445312 218.84375 L 34 218.84375 Z M 34 187.34375 "/></clipPath></defs><g id="b153a74cf2"><g clip-rule="nonzero" clip-path="url(#b0814a4aa0)"><path style=" stroke:none;fill-rule:nonzero;fill:#e1e5ea;fill-opacity:1;" d="M 133.433594 94.984375 L 163.105469 94.984375 L 163.105469 113.050781 L 123.726562 113.050781 Z M 178.375 94.984375 L 178.375 113.050781 L 340.558594 113.050781 L 340.558594 94.984375 Z M 105.796875 146.421875 L 163.105469 146.421875 L 163.105469 128.351562 L 115.503906 128.351562 Z M 178.375 146.421875 L 340.558594 146.421875 L 340.558594 128.351562 L 178.375 128.351562 Z M 87.867188 179.789062 L 163.105469 179.789062 L 163.105469 161.722656 L 97.574219 161.722656 Z M 178.375 179.789062 L 275.238281 179.789062 L 275.238281 161.722656 L 178.375 161.722656 Z M 69.941406 213.125 L 163.105469 213.125 L 163.105469 195.058594 L 79.648438 195.058594 Z M 178.375 213.125 L 275.238281 213.125 L 275.238281 195.058594 L 178.375 195.058594 Z M 52.011719 246.496094 L 163.105469 246.496094 L 163.105469 228.429688 L 61.71875 228.429688 Z M 178.375 246.496094 L 211.296875 246.496094 L 211.296875 228.429688 L 178.375 228.429688 Z M 34.082031 279.832031 L 163.105469 279.832031 L 163.105469 261.765625 L 43.789062 261.765625 Z M 178.375 279.832031 L 211.296875 279.832031 L 211.296875 261.765625 L 178.375 261.765625 Z M 178.375 279.832031 "/></g><g clip-rule="nonzero" clip-path="url(#2e9c3afaf5)"><path style=" stroke:none;fill-rule:nonzero;fill:#6e44ff;fill-opacity:1;" d="M 133.433594 94.984375 L 163.105469 94.984375 L 163.105469 113.050781 L 123.726562 113.050781 Z M 178.375 94.984375 L 178.375 113.050781 L 340.558594 113.050781 L 340.558594 94.984375 Z M 105.796875 146.421875 L 163.105469 146.421875 L 163.105469 128.351562 L 115.503906 128.351562 Z M 178.375 146.421875 L 340.558594 146.421875 L 340.558594 128.351562 L 178.375 128.351562 Z M 87.867188 179.789062 L 163.105469 179.789062 L 163.105469 161.722656 L 97.574219 161.722656 Z M 178.375 179.789062 L 275.238281 179.789062 L 275.238281 161.722656 L 178.375 161.722656 Z M 69.941406 213.125 L 163.105469 213.125 L 163.105469 195.058594 L 79.648438 195.058594 Z M 178.375 213.125 L 275.238281 213.125 L 275.238281 195.058594 L 178.375 195.058594 Z M 52.011719 246.496094 L 163.105469 246.496094 L 163.105469 228.429688 L 61.71875 228.429688 Z M 178.375 246.496094 L 211.296875 246.496094 L 211.296875 228.429688 L 178.375 228.429688 Z M 34.082031 279.832031 L 163.105469 279.832031 L 163.105469 261.765625 L 43.789062 261.765625 Z M 178.375 279.832031 L 211.296875 279.832031 L 211.296875 261.765625 L 178.375 261.765625 Z M 178.375 279.832031 "/></g><g clip-rule="nonzero" clip-path="url(#0c84867ac2)"><path style=" stroke:none;fill-rule:nonzero;fill:#6e44ff;fill-opacity:1;" d="M 133.433594 94.984375 L 163.105469 94.984375 L 163.105469 113.050781 L 123.726562 113.050781 Z M 178.375 94.984375 L 178.375 113.050781 L 340.558594 113.050781 L 340.558594 94.984375 Z M 105.796875 146.421875 L 163.105469 146.421875 L 163.105469 128.351562 L 115.503906 128.351562 Z M 178.375 146.421875 L 340.558594 146.421875 L 340.558594 128.351562 L 178.375 128.351562 Z M 87.867188 179.789062 L 163.105469 179.789062 L 163.105469 161.722656 L 97.574219 161.722656 Z M 178.375 179.789062 L 275.238281 179.789062 L 275.238281 161.722656 L 178.375 161.722656 Z M 69.941406 213.125 L 163.105469 213.125 L 163.105469 195.058594 L 79.648438 195.058594 Z M 178.375 213.125 L 275.238281 213.125 L 275.238281 195.058594 L 178.375 195.058594 Z M 52.011719 246.496094 L 163.105469 246.496094 L 163.105469 228.429688 L 61.71875 228.429688 Z M 178.375 246.496094 L 211.296875 246.496094 L 211.296875 228.429688 L 178.375 228.429688 Z M 34.082031 279.832031 L 163.105469 279.832031 L 163.105469 261.765625 L 43.789062 261.765625 Z M 178.375 279.832031 L 211.296875 279.832031 L 211.296875 261.765625 L 178.375 261.765625 Z M 178.375 279.832031 "/></g></g></svg>